<?xml version="1.0" standalone="no"?>
<svg viewBox="0 0 200 200" xmlns="http://www.w3.org/2000/svg">
  <path fill="#FF0066" d="M38.1,-59.6C45.9,-54.2,46.5,-37.9,49.3,-24.6C52,-11.4,56.9,-1.2,60.7,12.4C64.6,26.1,67.3,43.4,59.6,50.9C51.9,58.4,33.9,56.1,19,56.8C4.2,57.5,-7.4,61.2,-16.6,57.9C-25.8,54.6,-32.5,44.3,-44.8,35.7C-57.1,27.1,-74.9,20.2,-79.6,9.4C-84.3,-1.4,-75.9,-16.1,-67.6,-29.5C-59.3,-42.8,-51.1,-54.8,-39.8,-58.6C-28.6,-62.5,-14.3,-58.2,0.4,-58.9C15.1,-59.5,30.2,-65,38.1,-59.6Z" transform="translate(100 100)" />
</svg>
